# xmcd
#
# Track frame offsets: 
#        150
#        16848
#        30171
#        45069
#        60942
#        76440
#        95613
#
# Disc length: 1476 seconds
#
# Revision: 0
# Processed by: cddbd v1.5.2PL0 Copyright (c) Steve Scherf et al.
# Submitted via: ExactAudioCopyFreeDBPlugin 1.0
#
DISCID=3a05c207
DTITLE=Brittany Clarke - It's Gonna Turn
DYEAR=2009
DGENRE=Country and Folk
TTITLE0=Cut Me Loose
TTITLE1=It's Gonna Turn
TTITLE2=Tonight, I Let You Go
TTITLE3=Remember That
TTITLE4=Didn't I
TTITLE5=If That Chair Could Talk
TTITLE6=I'm Listening
EXTD=
EXTT0=
EXTT1=
EXTT2=
EXTT3=
EXTT4=
EXTT5=
EXTT6=
PLAYORDER=
